<?xml version="1.0" encoding="UTF-8"?>
<svg id="Camada_2" data-name="Camada 2" xmlns="http://www.w3.org/2000/svg" viewBox="0 0 189 189">
  <defs>
    <style>
      .cls-1 {
        fill: #28292e;
        stroke-width: 0px;
      }
    </style>
  </defs>
  <g id="OBJECTS">
    <g>
      <path class="cls-1" d="m144.56,88.13H44.44c-8.37,0-15.18,6.81-15.18,15.18v.75c0,8.37,6.81,15.18,15.18,15.18s15.18-6.81,15.18-15.18v-.38h-8.03v.38c0,3.94-3.21,7.15-7.15,7.15s-7.15-3.21-7.15-7.15v-.75c0-3.94,3.21-7.15,7.15-7.15h100.11c3.94,0,7.15,3.21,7.15,7.15v.75c0,3.94-3.21,7.15-7.15,7.15s-7.15-3.21-7.15-7.15v-.38h-8.03v.38c0,8.37,6.81,15.18,15.18,15.18s15.18-6.81,15.18-15.18v-.75c0-8.37-6.81-15.18-15.18-15.18Z"/>
      <rect class="cls-1" x="66.4" y="104.19" width="56.2" height="8.03"/>
      <rect class="cls-1" x="45.15" y="73.08" width="98.69" height="8.03"/>
      <path class="cls-1" d="m94.5,0C42.39,0,0,42.39,0,94.5c0,42.33,27.97,78.24,66.4,90.23v.25h.88c8.63,2.6,17.76,4.01,27.22,4.01s18.6-1.41,27.22-4.01h.88v-.25c38.43-11.99,66.4-47.91,66.4-90.23C189,42.39,146.61,0,94.5,0Zm74.6,50.85l-45.77,6.39s-.12-.07-.17-.24c-.8-2.77-2.01-5.35-3.54-7.74l27.45-23.34c8.85,6.8,16.35,15.27,22.03,24.94Zm-54.65-7.74c-1.9-1.72-4.02-3.18-6.29-4.35l9.72-27.5c7.98,2.25,15.49,5.6,22.37,9.9l-25.8,21.94Zm-4.44-33.66l-9.42,26.66c-4-.83-8.19-.82-12.17,0l-9.42-26.66c5.04-.92,10.21-1.42,15.51-1.42s10.47.5,15.51,1.42Zm-35.46,33.66l-25.8-21.94c6.87-4.3,14.39-7.66,22.36-9.9l9.72,27.5c-2.27,1.17-4.39,2.63-6.29,4.35Zm-32.62-17.2l27.45,23.34c-1.54,2.39-2.74,4.98-3.54,7.74-.05.17-.15.24-.19.24l-45.75-6.39c5.68-9.67,13.18-18.14,22.03-24.94Zm80.67,150.35v-57.26h-8.03v59.6c-2.53.6-5.09,1.1-7.7,1.48v-61.08h-8.03v61.87c-1.44.07-2.89.11-4.35.11s-2.91-.04-4.35-.11v-61.86h-8.03v61.08c-2.6-.38-5.17-.87-7.69-1.48v-59.6h-8.03v57.26c-33.92-11.69-58.37-43.91-58.37-81.76,0-12.88,2.85-25.1,7.92-36.09l48.59,6.78c.38.05.76.08,1.14.08,3.61,0,6.82-2.41,7.87-6.05.85-2.96,2.31-5.66,4.32-8.03,2.48-2.95,5.71-5.18,9.34-6.46,4.63-1.66,9.91-1.67,14.58,0,3.61,1.27,6.84,3.5,9.33,6.46,2.01,2.36,3.46,5.06,4.31,8.02,1.16,4.02,4.94,6.54,9.01,5.97l48.59-6.78c5.07,10.99,7.92,23.21,7.92,36.09,0,37.84-24.45,70.06-58.37,81.76Z"/>
    </g>
  </g>
</svg>